<svg width="32" height="32" viewBox="0 0 32 32" fill="none" xmlns="http://www.w3.org/2000/svg">
<g clip-path="url(#clip0_841_1630)">
<path d="M12.3276 20.6018L11.8366 23.5179C11.7697 23.9165 11.9333 24.3183 12.2597 24.5562C12.5866 24.7936 13.0206 24.8254 13.3778 24.6383L15.9995 23.2697L18.6213 24.6385C18.7764 24.719 18.9464 24.7595 19.1146 24.7595C19.3348 24.7595 19.5545 24.6906 19.7399 24.5565C20.0665 24.3186 20.2306 23.9168 20.1632 23.5181L19.6727 20.602L21.7838 18.5312C22.0725 18.2484 22.1753 17.8264 22.0515 17.4424C21.9271 17.0585 21.5943 16.7775 21.1949 16.7186L18.2696 16.2848L16.952 13.6366C16.7733 13.2751 16.4031 13.0461 15.9993 13.0461C15.5962 13.0461 15.2263 13.2751 15.046 13.6366L13.7298 16.2848L10.8044 16.7183C10.4042 16.7773 10.073 17.0583 9.94837 17.4421C9.82377 17.8262 9.92632 18.2487 10.2155 18.531L12.3276 20.6018Z" fill="#FFFFF0"/>
<path d="M28.5722 3.40195H25.2225V1.54394C25.2225 0.69121 24.5313 0 23.6783 0H23.4335C22.5807 0 21.8898 0.69121 21.8898 1.54394V3.40195H10.0713V1.54394C10.0713 0.69121 9.38005 0 8.52757 0H8.28247C7.42974 0 6.73879 0.69121 6.73879 1.54394V3.40195H3.42811C1.67624 3.40195 0.250488 4.82719 0.250488 6.57957V28.8226C0.250488 30.574 1.67624 32.0003 3.42811 32.0003H28.5724C30.324 32.0003 31.75 30.5742 31.75 28.8226V6.57957C31.7498 4.82719 30.3238 3.40195 28.5722 3.40195ZM28.1576 28.4081H3.84268V11.0932H28.1576V28.4081Z" fill="#FFFFF0"/>
</g>
<defs>
<clipPath id="clip0_841_1630">
<rect width="32" height="32" fill="white"/>
</clipPath>
</defs>
</svg>
