<svg width="32" height="32" viewBox="0 0 32 32" fill="none" xmlns="http://www.w3.org/2000/svg">
<g clip-path="url(#clip0_841_1637)">
<path d="M31.6489 30.5272L27.7931 18.628C27.6427 18.1637 27.2101 17.8493 26.7221 17.8493H24.0001C25.2189 15.6407 26.0944 13.0328 26.0944 10.0955C26.0944 4.52889 21.566 0 15.9998 0C10.434 0 5.90572 4.52889 5.90572 10.0955C5.90572 13.0328 6.78124 15.6407 7.99988 17.8493H5.27801C4.7899 17.8493 4.35762 18.1637 4.20707 18.628L0.351219 30.5272C0.240147 30.8699 0.299886 31.245 0.511673 31.5364C0.72346 31.8277 1.06193 32 1.42216 32H30.578C30.9382 32 31.2765 31.8277 31.4885 31.5364C31.7003 31.245 31.7598 30.8699 31.6489 30.5272ZM15.9998 2.25146C20.3245 2.25146 23.843 5.77034 23.843 10.0955C23.843 17.006 17.9465 22.0577 15.9986 23.5378C14.0491 22.0618 8.15718 17.026 8.15718 10.0955C8.15718 5.77034 11.6753 2.25146 15.9998 2.25146ZM2.97027 29.7485L6.09664 20.1007H9.44306C12.0428 23.6465 15.1606 25.721 15.3839 25.867C15.5711 25.9894 15.7854 26.0504 15.9999 26.0504C16.2144 26.0504 16.4287 25.9894 16.6159 25.867C16.839 25.7211 19.9572 23.6465 22.5571 20.1007H25.9038L29.03 29.7485H2.97027Z" fill="#FFFFF0"/>
</g>
<defs>
<clipPath id="clip0_841_1637">
<rect width="32" height="32" fill="white"/>
</clipPath>
</defs>
</svg>
