<svg width="32" height="32" viewBox="0 0 32 32" fill="none" xmlns="http://www.w3.org/2000/svg">
<path d="M24.4662 11.2302L20.5878 7.35176C20.2308 6.99473 19.652 6.99473 19.295 7.35176L1.51582 25.1305C1.15879 25.4875 1.15879 26.0663 1.51582 26.4233L5.39422 30.3017C5.57296 30.4804 5.80656 30.5696 6.04062 30.5696C6.27468 30.5696 6.50828 30.4804 6.68702 30.3017L24.4662 12.5234C24.8232 12.1659 24.8232 11.5876 24.4662 11.2302ZM6.04108 28.3625L3.45548 25.7769L17.3554 11.877L19.941 14.4626L6.04108 28.3625ZM20.5869 13.8162L18.0013 11.2306L19.941 9.29096L22.5266 11.8766L20.5869 13.8162Z" fill="#AAAAAA"/>
<path d="M23.6925 7.5209L24.647 7.97576L25.3752 8.7433C25.7204 9.10719 26.2004 9.31336 26.7014 9.31336C27.2029 9.31336 27.6829 9.10719 28.028 8.7433L28.7558 7.97576L29.7099 7.5209C30.1624 7.30513 30.5067 6.91245 30.6621 6.43565C30.8171 5.95839 30.7691 5.43816 30.5295 4.99747L30.0253 4.06856L29.8872 3.02033C29.8214 2.52296 29.5549 2.0745 29.1494 1.77919C28.8349 1.55062 28.4578 1.42993 28.0742 1.42993C27.9631 1.42993 27.852 1.43999 27.741 1.46056L26.7014 1.65347L25.6614 1.46102C25.5508 1.44045 25.4397 1.43039 25.3282 1.43039C24.9446 1.43039 24.5679 1.55107 24.253 1.77965C23.847 2.07496 23.58 2.52342 23.5151 3.02079L23.3775 4.06856L22.8728 4.99747C22.6333 5.43816 22.5853 5.95839 22.7403 6.43565C22.8957 6.91245 23.2399 7.30513 23.6925 7.5209ZM25.1462 4.64365L25.3282 3.25896L26.7014 3.51359L28.0742 3.25896L28.2562 4.64365L28.9227 5.87062L27.6623 6.4713L26.701 7.48479L25.7391 6.4713L24.4788 5.87062L25.1462 4.64365Z" fill="#AAAAAA"/>
<path d="M12.2134 7.20216L12.7935 7.47828L13.2356 7.94456C13.5807 8.30799 14.0603 8.51416 14.5613 8.51416C15.0628 8.51416 15.5428 8.30845 15.8875 7.94502L16.33 7.47874L16.9106 7.20216C17.3631 6.98639 17.7078 6.59371 17.8628 6.11645C18.0178 5.63919 17.9693 5.11942 17.7302 4.67828L17.4235 4.11462L17.3398 3.47782C17.2744 2.98045 17.0075 2.53199 16.602 2.23668C16.2875 2.00765 15.9103 1.88696 15.5268 1.88696C15.4157 1.88696 15.3042 1.89702 15.1935 1.91759L14.5618 2.03462L13.9304 1.91759C13.8198 1.89702 13.7083 1.88696 13.5972 1.88696C13.2141 1.88696 12.8374 2.00765 12.5224 2.23622C12.1165 2.53108 11.8495 2.97953 11.7842 3.47691L11.7 4.11462L11.3933 4.67919C11.1542 5.11988 11.1062 5.63965 11.2616 6.11691C11.4166 6.59416 11.7608 6.98639 12.2134 7.20216ZM13.4687 4.68925L13.5967 3.71599L14.5613 3.89519L15.5263 3.71599L15.6539 4.68925L16.1224 5.55188L15.2365 5.97428L14.5604 6.68605L13.8847 5.97428L12.9988 5.55188L13.4687 4.68925Z" fill="#AAAAAA"/>
<path d="M30.2228 15.5433L30.1391 14.9065C30.0738 14.4092 29.8068 13.9607 29.4013 13.6654C29.0868 13.4364 28.7096 13.3157 28.3261 13.3157C28.215 13.3157 28.1035 13.3257 27.9928 13.3463L27.3611 13.4633L26.7298 13.3463C26.6191 13.3257 26.5076 13.3157 26.3965 13.3157C26.0134 13.3157 25.6367 13.4364 25.3218 13.6649C24.9158 13.9598 24.6488 14.4082 24.5835 14.9056L24.4994 15.5433L24.1926 16.1079C23.9535 16.5486 23.9055 17.0684 24.061 17.5456C24.2159 18.0229 24.5602 18.4151 25.0127 18.6309L25.5928 18.907L26.0349 19.3733C26.38 19.7367 26.8596 19.9429 27.3606 19.9429C27.8621 19.9429 28.3421 19.7372 28.6868 19.3737L29.1293 18.9074L29.7099 18.6309C30.1624 18.4151 30.5071 18.0224 30.6621 17.5452C30.8171 17.0679 30.7686 16.5481 30.5295 16.107L30.2228 15.5433ZM28.0372 17.4025L27.3611 18.1143L26.6854 17.4025L25.7995 16.9801L26.2676 16.1175L26.3956 15.1442L27.3602 15.3234L28.3252 15.1442L28.4527 16.1175L28.9213 16.9801L28.0372 17.4025Z" fill="#AAAAAA"/>
<path d="M14.6855 15.9895C14.5068 15.8108 14.2178 15.8108 14.0391 15.9895L13.0105 17.0181C12.8318 17.1968 12.8318 17.4858 13.0105 17.6645C13.0997 17.7536 13.2167 17.7984 13.3337 17.7984C13.4508 17.7984 13.5678 17.7536 13.6569 17.6645L14.6855 16.6359C14.8642 16.4572 14.8642 16.1678 14.6855 15.9895Z" fill="#AAAAAA"/>
<path d="M11.7534 18.2752L4.89626 25.1323C4.71752 25.3111 4.71752 25.6 4.89626 25.7787C4.98541 25.8679 5.10244 25.9127 5.21946 25.9127C5.33649 25.9127 5.45352 25.8679 5.54266 25.7787L12.3998 18.9216C12.5785 18.7428 12.5785 18.4539 12.3998 18.2752C12.2211 18.0964 11.9321 18.0964 11.7534 18.2752Z" fill="#AAAAAA"/>
</svg>
