<svg width="32" height="32" viewBox="0 0 32 32" fill="none" xmlns="http://www.w3.org/2000/svg">
<path d="M24.4662 11.2302L20.5878 7.35176C20.2308 6.99473 19.652 6.99473 19.295 7.35176L1.51582 25.1305C1.15879 25.4875 1.15879 26.0663 1.51582 26.4233L5.39422 30.3017C5.57296 30.4804 5.80656 30.5696 6.04062 30.5696C6.27468 30.5696 6.50828 30.4804 6.68702 30.3017L24.4662 12.5234C24.8232 12.1659 24.8232 11.5876 24.4662 11.2302ZM6.04108 28.3625L3.45548 25.7769L17.3554 11.877L19.941 14.4626L6.04108 28.3625ZM20.5869 13.8162L18.0013 11.2306L19.941 9.29096L22.5266 11.8766L20.5869 13.8162Z" fill="#FFFFF0"/>
<path d="M23.6927 7.5209L24.6473 7.97576L25.3755 8.7433C25.7206 9.10719 26.2006 9.31336 26.7017 9.31336C27.2031 9.31336 27.6831 9.10719 28.0283 8.7433L28.7561 7.97576L29.7101 7.5209C30.1627 7.30513 30.5069 6.91245 30.6623 6.43565C30.8173 5.95839 30.7693 5.43816 30.5298 4.99747L30.0255 4.06856L29.8875 3.02033C29.8217 2.52296 29.5551 2.0745 29.1497 1.77919C28.8351 1.55062 28.458 1.42993 28.0745 1.42993C27.9634 1.42993 27.8523 1.43999 27.7412 1.46056L26.7017 1.65347L25.6617 1.46102C25.551 1.44045 25.4399 1.43039 25.3284 1.43039C24.9449 1.43039 24.5682 1.55107 24.2532 1.77965C23.8473 2.07496 23.5803 2.52342 23.5154 3.02079L23.3778 4.06856L22.8731 4.99747C22.6335 5.43816 22.5855 5.95839 22.7405 6.43565C22.8959 6.91245 23.2402 7.30513 23.6927 7.5209ZM25.1465 4.64365L25.3284 3.25896L26.7017 3.51359L28.0745 3.25896L28.2564 4.64365L28.9229 5.87062L27.6626 6.4713L26.7012 7.48479L25.7394 6.4713L24.479 5.87062L25.1465 4.64365Z" fill="#FFFFF0"/>
<path d="M12.2134 7.20216L12.7935 7.47828L13.2356 7.94456C13.5807 8.30799 14.0603 8.51416 14.5613 8.51416C15.0628 8.51416 15.5428 8.30845 15.8875 7.94502L16.33 7.47874L16.9106 7.20216C17.3631 6.98639 17.7078 6.59371 17.8628 6.11645C18.0178 5.63919 17.9693 5.11942 17.7302 4.67828L17.4235 4.11462L17.3398 3.47782C17.2744 2.98045 17.0075 2.53199 16.602 2.23668C16.2875 2.00765 15.9103 1.88696 15.5268 1.88696C15.4157 1.88696 15.3042 1.89702 15.1935 1.91759L14.5618 2.03462L13.9304 1.91759C13.8198 1.89702 13.7083 1.88696 13.5972 1.88696C13.2141 1.88696 12.8374 2.00765 12.5224 2.23622C12.1165 2.53108 11.8495 2.97953 11.7842 3.47691L11.7 4.11462L11.3933 4.67919C11.1542 5.11988 11.1062 5.63965 11.2616 6.11691C11.4166 6.59416 11.7608 6.98639 12.2134 7.20216ZM13.4687 4.68925L13.5967 3.71599L14.5613 3.89519L15.5263 3.71599L15.6539 4.68925L16.1224 5.55188L15.2365 5.97428L14.5604 6.68605L13.8847 5.97428L12.9988 5.55188L13.4687 4.68925Z" fill="#FFFFF0"/>
<path d="M30.223 15.5433L30.1394 14.9065C30.074 14.4092 29.807 13.9607 29.4015 13.6654C29.087 13.4364 28.7099 13.3157 28.3263 13.3157C28.2153 13.3157 28.1037 13.3257 27.9931 13.3463L27.3613 13.4633L26.73 13.3463C26.6194 13.3257 26.5078 13.3157 26.3967 13.3157C26.0137 13.3157 25.637 13.4364 25.322 13.6649C24.9161 13.9598 24.6491 14.4082 24.5837 14.9056L24.4996 15.5433L24.1929 16.1079C23.9538 16.5486 23.9058 17.0684 24.0612 17.5456C24.2162 18.0229 24.5604 18.4151 25.013 18.6309L25.5931 18.907L26.0351 19.3733C26.3803 19.7367 26.8598 19.9429 27.3609 19.9429C27.8623 19.9429 28.3423 19.7372 28.687 19.3737L29.1295 18.9074L29.7101 18.6309C30.1627 18.4151 30.5074 18.0224 30.6623 17.5452C30.8173 17.0679 30.7689 16.5481 30.5298 16.107L30.223 15.5433ZM28.0374 17.4025L27.3613 18.1143L26.6857 17.4025L25.7997 16.9801L26.2678 16.1175L26.3958 15.1442L27.3604 15.3234L28.3254 15.1442L28.453 16.1175L28.9215 16.9801L28.0374 17.4025Z" fill="#FFFFF0"/>
<path d="M14.6857 15.9895C14.507 15.8108 14.2181 15.8108 14.0393 15.9895L13.0108 17.0181C12.832 17.1968 12.832 17.4858 13.0108 17.6645C13.0999 17.7536 13.2169 17.7984 13.334 17.7984C13.451 17.7984 13.568 17.7536 13.6572 17.6645L14.6857 16.6359C14.8645 16.4572 14.8645 16.1678 14.6857 15.9895Z" fill="#FFFFF0"/>
<path d="M11.7537 18.2752L4.89651 25.1323C4.71777 25.3111 4.71777 25.6 4.89651 25.7787C4.98565 25.8679 5.10268 25.9127 5.21971 25.9127C5.33674 25.9127 5.45377 25.8679 5.54291 25.7787L12.4001 18.9216C12.5788 18.7428 12.5788 18.4539 12.4001 18.2752C12.2213 18.0964 11.9324 18.0964 11.7537 18.2752Z" fill="#FFFFF0"/>
</svg>
