<svg width="32" height="32" viewBox="0 0 32 32" fill="none" xmlns="http://www.w3.org/2000/svg">
<g clip-path="url(#clip0_841_1153)">
<path d="M28.1056 30.9468C27.8743 26.6492 26.2571 13.831 26.2571 13.831C26.1979 13.2976 25.7472 12.8942 25.2104 12.8942H20.6285C20.7002 12.5641 20.7375 12.2254 20.7375 11.882C20.7375 10.4098 20.0448 9.02399 18.8955 8.13391V6.57917C18.8955 5.99756 18.424 5.52608 17.8424 5.52608H17.0535V4.73717C17.0535 4.15557 16.582 3.68408 16.0004 3.68408C15.4188 3.68408 14.9473 4.15557 14.9473 4.73717V5.52608H14.1584C13.5768 5.52608 13.1053 5.99756 13.1053 6.57917V8.13391C11.956 9.02399 11.2634 10.4098 11.2634 11.882C11.2634 12.2254 11.3005 12.5641 11.3724 12.8942H6.79014C6.25347 12.8942 5.80266 13.2976 5.7434 13.831C5.7434 13.831 4.12627 26.6492 3.89495 30.9468C3.86359 31.5276 4.36644 32 4.94804 32C5.93465 32 6.47994 31.6675 6.87806 31.4247C7.16994 31.2469 7.31636 31.1574 7.71146 31.1574C8.10666 31.1574 8.25309 31.2469 8.54497 31.4247C8.94308 31.6675 9.48827 32 10.4749 32C11.4615 32 12.0068 31.6675 12.4049 31.4247C12.6967 31.2468 12.8431 31.1574 13.2381 31.1574C13.6331 31.1574 13.7795 31.2468 14.0712 31.4246C14.4693 31.6675 15.0146 32 16.0011 32C16.9876 32 17.5329 31.6675 17.9309 31.4247C18.2227 31.2468 18.3691 31.1574 18.7641 31.1574C19.1591 31.1574 19.3055 31.2468 19.5971 31.4246C19.9953 31.6675 20.5404 32 21.5269 32C22.5135 32 23.0587 31.6675 23.4568 31.4246C23.7484 31.2468 23.8948 31.1574 24.2896 31.1574C24.6843 31.1574 24.8307 31.2468 25.1225 31.4246C25.5205 31.6675 26.0657 32 27.0522 32C27.6341 32 28.1369 31.5275 28.1056 30.9468ZM13.3694 11.882C13.3694 10.9465 13.8738 10.0734 14.6857 9.60365C15.0111 9.41542 15.2114 9.06795 15.2114 8.69214V7.63236H16.7891V8.69214C16.7891 9.06795 16.9894 9.41542 17.3148 9.60365C18.1268 10.0734 18.6311 10.9466 18.6311 11.882C18.6311 12.2333 18.5623 12.5759 18.4296 12.8942H13.571C13.4383 12.576 13.3694 12.2333 13.3694 11.882ZM24.2898 29.051C23.3033 29.051 22.7581 29.3836 22.3601 29.6265C22.0685 29.8043 21.922 29.8936 21.5272 29.8936C21.1323 29.8936 20.9859 29.8043 20.6941 29.6265C20.296 29.3836 19.7507 29.051 18.7642 29.051C17.7776 29.051 17.2323 29.3836 16.8342 29.6265C16.5425 29.8043 16.3961 29.8936 16.0012 29.8936C15.6062 29.8936 15.4598 29.8043 15.1681 29.6265C14.77 29.3836 14.2248 29.051 13.2382 29.051C12.2516 29.051 11.7064 29.3836 11.3083 29.6263C11.0165 29.8043 10.8701 29.8936 10.4751 29.8936C10.0801 29.8936 9.93368 29.8043 9.6418 29.6263C9.24369 29.3836 8.69829 29.051 7.71167 29.051C6.98332 29.051 6.49578 29.2325 6.1301 29.425L7.7329 15.0006H24.2678L25.8707 29.4247C25.505 29.232 25.0176 29.051 24.2898 29.051Z" fill="#AAAAAA"/>
<path d="M17.0973 3.63975C17.293 3.83563 17.5649 3.94833 17.8418 3.94833C18.1188 3.94833 18.3906 3.83563 18.5864 3.63975C18.7833 3.44398 18.8949 3.17225 18.8949 2.89513C18.8949 2.61823 18.7833 2.34639 18.5864 2.15062C18.3906 1.95474 18.1188 1.84204 17.8418 1.84204C17.5649 1.84204 17.2942 1.95474 17.0973 2.15062C16.9014 2.34639 16.7886 2.61823 16.7886 2.89513C16.7885 3.17225 16.9013 3.44398 17.0973 3.63975Z" fill="#AAAAAA"/>
<path d="M14.1576 3.94833C14.4356 3.94833 14.7063 3.83563 14.9022 3.63975C15.098 3.44398 15.2108 3.17225 15.2108 2.89513C15.2108 2.61823 15.098 2.34639 14.9022 2.15062C14.7063 1.95474 14.4356 1.84204 14.1576 1.84204C13.8807 1.84204 13.6088 1.95474 13.413 2.15062C13.2172 2.34639 13.1045 2.61823 13.1045 2.89513C13.1045 3.17225 13.2172 3.44398 13.413 3.63975C13.6089 3.83563 13.8807 3.94833 14.1576 3.94833Z" fill="#AAAAAA"/>
<path d="M15.9999 2.1064C16.2768 2.1064 16.5486 1.9937 16.7444 1.79782C16.9413 1.60194 17.0531 1.33021 17.0531 1.0532C17.0531 0.776296 16.9413 0.504566 16.7444 0.308579C16.5486 0.112593 16.2768 0 15.9999 0C15.723 0 15.4511 0.112593 15.2552 0.308471C15.0594 0.504458 14.9468 0.776189 14.9468 1.05309C14.9468 1.3301 15.0594 1.60183 15.2552 1.79771C15.4511 1.9937 15.723 2.1064 15.9999 2.1064Z" fill="#AAAAAA"/>
</g>
<defs>
<clipPath id="clip0_841_1153">
<rect width="32" height="32" fill="white"/>
</clipPath>
</defs>
</svg>
