<svg width="32" height="32" viewBox="0 0 32 32" fill="none" xmlns="http://www.w3.org/2000/svg">
<g clip-path="url(#clip0_841_1651)">
<path d="M28.1053 30.9468C27.874 26.6492 26.2569 13.831 26.2569 13.831C26.1976 13.2976 25.7469 12.8942 25.2101 12.8942H20.6282C20.7 12.5641 20.7373 12.2254 20.7373 11.882C20.7373 10.4098 20.0446 9.02399 18.8953 8.13391V6.57917C18.8953 5.99756 18.4238 5.52608 17.8422 5.52608H17.0533V4.73717C17.0533 4.15557 16.5818 3.68408 16.0002 3.68408C15.4186 3.68408 14.9471 4.15557 14.9471 4.73717V5.52608H14.1582C13.5766 5.52608 13.1051 5.99756 13.1051 6.57917V8.13391C11.9558 9.02399 11.2631 10.4098 11.2631 11.882C11.2631 12.2254 11.3003 12.5641 11.3721 12.8942H6.78989C6.25322 12.8942 5.80242 13.2976 5.74316 13.831C5.74316 13.831 4.12603 26.6492 3.8947 30.9468C3.86335 31.5276 4.36619 32 4.94779 32C5.93441 32 6.4797 31.6675 6.87781 31.4247C7.16969 31.2469 7.31612 31.1574 7.71121 31.1574C8.10642 31.1574 8.25284 31.2469 8.54472 31.4247C8.94284 31.6675 9.48802 32 10.4746 32C11.4612 32 12.0065 31.6675 12.4047 31.4247C12.6964 31.2468 12.8429 31.1574 13.2378 31.1574C13.6328 31.1574 13.7793 31.2468 14.0709 31.4246C14.469 31.6675 15.0143 32 16.0008 32C16.9873 32 17.5326 31.6675 17.9306 31.4247C18.2224 31.2468 18.3688 31.1574 18.7638 31.1574C19.1588 31.1574 19.3052 31.2468 19.5969 31.4246C19.995 31.6675 20.5402 32 21.5267 32C22.5132 32 23.0585 31.6675 23.4565 31.4246C23.7482 31.2468 23.8946 31.1574 24.2894 31.1574C24.684 31.1574 24.8305 31.2468 25.1222 31.4246C25.5202 31.6675 26.0654 32 27.0519 32C27.6339 32 28.1367 31.5275 28.1053 30.9468ZM13.3692 11.882C13.3692 10.9465 13.8735 10.0734 14.6855 9.60365C15.0109 9.41542 15.2112 9.06795 15.2112 8.69214V7.63236H16.7889V8.69214C16.7889 9.06795 16.9892 9.41542 17.3146 9.60365C18.1265 10.0734 18.6309 10.9466 18.6309 11.882C18.6309 12.2333 18.562 12.5759 18.4294 12.8942H13.5708C13.438 12.576 13.3692 12.2333 13.3692 11.882ZM24.2896 29.051C23.3031 29.051 22.7579 29.3836 22.3599 29.6265C22.0682 29.8043 21.9218 29.8936 21.5269 29.8936C21.132 29.8936 20.9856 29.8043 20.6938 29.6265C20.2957 29.3836 19.7504 29.051 18.7639 29.051C17.7773 29.051 17.232 29.3836 16.8339 29.6265C16.5422 29.8043 16.3958 29.8936 16.0009 29.8936C15.6059 29.8936 15.4595 29.8043 15.1679 29.6265C14.7697 29.3836 14.2246 29.051 13.2379 29.051C12.2513 29.051 11.7062 29.3836 11.308 29.6263C11.0163 29.8043 10.8698 29.8936 10.4749 29.8936C10.0799 29.8936 9.93344 29.8043 9.64156 29.6263C9.24344 29.3836 8.69804 29.051 7.71143 29.051C6.98308 29.051 6.49554 29.2325 6.12985 29.425L7.73266 15.0006H24.2676L25.8704 29.4247C25.5047 29.232 25.0174 29.051 24.2896 29.051Z" fill="#FFFFF0"/>
<path d="M17.097 3.63975C17.2928 3.83563 17.5646 3.94833 17.8415 3.94833C18.1185 3.94833 18.3904 3.83563 18.5861 3.63975C18.7831 3.44398 18.8946 3.17225 18.8946 2.89513C18.8946 2.61823 18.7831 2.34639 18.5861 2.15062C18.3904 1.95474 18.1185 1.84204 17.8415 1.84204C17.5646 1.84204 17.294 1.95474 17.097 2.15062C16.9011 2.34639 16.7883 2.61823 16.7883 2.89513C16.7882 3.17225 16.901 3.44398 17.097 3.63975Z" fill="#FFFFF0"/>
<path d="M14.1576 3.94833C14.4356 3.94833 14.7063 3.83563 14.9022 3.63975C15.098 3.44398 15.2108 3.17225 15.2108 2.89513C15.2108 2.61823 15.098 2.34639 14.9022 2.15062C14.7063 1.95474 14.4356 1.84204 14.1576 1.84204C13.8807 1.84204 13.6088 1.95474 13.413 2.15062C13.2172 2.34639 13.1045 2.61823 13.1045 2.89513C13.1045 3.17225 13.2172 3.44398 13.413 3.63975C13.6089 3.83563 13.8807 3.94833 14.1576 3.94833Z" fill="#FFFFF0"/>
<path d="M15.9996 2.1064C16.2765 2.1064 16.5484 1.9937 16.7441 1.79782C16.9411 1.60194 17.0528 1.33021 17.0528 1.0532C17.0528 0.776296 16.9411 0.504566 16.7441 0.308579C16.5484 0.112593 16.2765 0 15.9996 0C15.7227 0 15.4509 0.112593 15.255 0.308471C15.0591 0.504458 14.9465 0.776189 14.9465 1.05309C14.9465 1.3301 15.0591 1.60183 15.255 1.79771C15.4509 1.9937 15.7227 2.1064 15.9996 2.1064Z" fill="#FFFFF0"/>
</g>
<defs>
<clipPath id="clip0_841_1651">
<rect width="32" height="32" fill="white"/>
</clipPath>
</defs>
</svg>
