<svg width="32" height="32" viewBox="0 0 32 32" fill="none" xmlns="http://www.w3.org/2000/svg">
<g clip-path="url(#clip0_841_1161)">
<path d="M24.6317 3.92961H22.3644V1.2165C22.3749 1.08687 22.3643 0.953437 22.327 0.820875C22.1584 0.222503 21.5367 -0.126121 20.9382 0.0424408L7.03897 3.95686C6.07797 4.11486 5.34229 4.95092 5.34229 5.95598V29.9737C5.34229 31.0911 6.25128 32.0001 7.36865 32.0001H24.6318C25.7492 32.0001 26.6582 31.0911 26.6582 29.9737V5.95598C26.6581 4.83861 25.7491 3.92961 24.6317 3.92961ZM20.113 2.61412V3.92961H15.4418L20.113 2.61412ZM24.4066 29.7485H7.59371V6.1811H24.4066V29.7485Z" fill="#AAAAAA"/>
<path d="M20.9756 9.6912C19.6938 8.40939 17.608 8.40927 16.326 9.6912L16.0561 9.96101L15.7863 9.6912C14.5138 8.41864 12.449 8.40933 11.1651 9.6632C10.588 10.1792 10.2495 11.0109 10.2349 11.9538C10.2199 12.9226 10.5538 13.7962 11.152 14.356L15.2602 18.4641L15.2603 18.4642C15.4801 18.684 15.7682 18.7939 16.0563 18.7939C16.3443 18.7939 16.6325 18.684 16.8523 18.4642L20.9756 14.3408C22.2576 13.0589 22.2576 10.9731 20.9756 9.6912ZM19.3837 12.7487L16.0563 16.0761L12.7289 12.7487L12.6923 12.7137C12.5865 12.617 12.4817 12.3384 12.4862 11.9931C12.4911 11.6108 12.6198 11.3816 12.6662 11.3415L12.7291 11.2833C12.9248 11.0876 13.185 10.9798 13.4617 10.9798C13.7385 10.9798 13.9987 11.0876 14.1945 11.2833L15.2597 12.3484C15.26 12.3487 15.2601 12.3489 15.2604 12.3492C15.7001 12.7887 16.4127 12.7887 16.8525 12.3491L17.9183 11.2833C18.3224 10.8793 18.9797 10.8793 19.3838 11.2833C19.7878 11.6873 19.7878 12.3448 19.3837 12.7487Z" fill="#AAAAAA"/>
<path d="M19.5066 21.0181H12.6052C11.9835 21.0181 11.4795 21.5221 11.4795 22.1438C11.4795 22.7656 11.9836 23.2696 12.6052 23.2696H19.5066C20.1283 23.2696 20.6323 22.7655 20.6323 22.1438C20.6323 21.5221 20.1283 21.0181 19.5066 21.0181Z" fill="#AAAAAA"/>
<path d="M19.5066 24.1702H12.6052C11.9835 24.1702 11.4795 24.6742 11.4795 25.2959C11.4795 25.9177 11.9836 26.4217 12.6052 26.4217H19.5066C20.1283 26.4217 20.6323 25.9176 20.6323 25.2959C20.6323 24.6742 20.1283 24.1702 19.5066 24.1702Z" fill="#AAAAAA"/>
</g>
<defs>
<clipPath id="clip0_841_1161">
<rect width="32" height="32" fill="white"/>
</clipPath>
</defs>
</svg>
