<svg width="32" height="32" viewBox="0 0 32 32" fill="none" xmlns="http://www.w3.org/2000/svg">
<g clip-path="url(#clip0_841_1856)">
<path d="M24.6315 3.92961H22.3642V1.2165C22.3747 1.08687 22.364 0.953437 22.3267 0.820875C22.1582 0.222503 21.5364 -0.126121 20.9379 0.0424408L7.03872 3.95686C6.07773 4.11486 5.34204 4.95092 5.34204 5.95598V29.9737C5.34204 31.0911 6.25104 32.0001 7.36841 32.0001H24.6316C25.749 32.0001 26.658 31.0911 26.658 29.9737V5.95598C26.6578 4.83861 25.7488 3.92961 24.6315 3.92961ZM20.1128 2.61412V3.92961H15.4416L20.1128 2.61412ZM24.4063 29.7485H7.59347V6.1811H24.4063V29.7485Z" fill="#FFFFF0"/>
<path d="M20.9759 9.6912C19.6941 8.40939 17.6083 8.40927 16.3262 9.6912L16.0564 9.96101L15.7866 9.6912C14.5141 8.41864 12.4492 8.40933 11.1653 9.6632C10.5882 10.1792 10.2497 11.0109 10.2351 11.9538C10.2202 12.9226 10.554 13.7962 11.1523 14.356L15.2605 18.4641L15.2605 18.4642C15.4803 18.684 15.7685 18.7939 16.0565 18.7939C16.3446 18.7939 16.6328 18.684 16.8525 18.4642L20.9759 14.3408C22.2578 13.0589 22.2578 10.9731 20.9759 9.6912ZM19.3839 12.7487L16.0566 16.0761L12.7292 12.7487L12.6925 12.7137C12.5868 12.617 12.482 12.3384 12.4865 11.9931C12.4913 11.6108 12.62 11.3816 12.6665 11.3415L12.7293 11.2833C12.925 11.0876 13.1852 10.9798 13.462 10.9798C13.7388 10.9798 13.999 11.0876 14.1948 11.2833L15.26 12.3484C15.2602 12.3487 15.2604 12.3489 15.2606 12.3492C15.7004 12.7887 16.413 12.7887 16.8528 12.3491L17.9185 11.2833C18.3226 10.8793 18.9799 10.8793 19.384 11.2833C19.788 11.6873 19.788 12.3448 19.3839 12.7487Z" fill="#FFFFF0"/>
<path d="M19.5068 21.0181H12.6055C11.9837 21.0181 11.4797 21.5221 11.4797 22.1438C11.4797 22.7656 11.9838 23.2696 12.6055 23.2696H19.5068C20.1286 23.2696 20.6326 22.7655 20.6326 22.1438C20.6326 21.5221 20.1286 21.0181 19.5068 21.0181Z" fill="#FFFFF0"/>
<path d="M19.5068 24.1702H12.6055C11.9837 24.1702 11.4797 24.6742 11.4797 25.2959C11.4797 25.9177 11.9838 26.4217 12.6055 26.4217H19.5068C20.1286 26.4217 20.6326 25.9176 20.6326 25.2959C20.6326 24.6742 20.1286 24.1702 19.5068 24.1702Z" fill="#FFFFF0"/>
</g>
<defs>
<clipPath id="clip0_841_1856">
<rect width="32" height="32" fill="white"/>
</clipPath>
</defs>
</svg>
