<svg width="31" height="26" viewBox="0 0 31 26" fill="none" xmlns="http://www.w3.org/2000/svg">
<path d="M14.69 19.2902C14.7827 19.1977 14.8562 19.0878 14.9064 18.9668C14.9566 18.8459 14.9824 18.7162 14.9824 18.5852C14.9824 18.4543 14.9566 18.3246 14.9064 18.2036C14.8562 18.0826 14.7827 17.9727 14.69 17.8802L10.81 14.0002L14.69 10.1202C14.877 9.93324 14.982 9.67965 14.982 9.41522C14.982 9.1508 14.877 8.8972 14.69 8.71022C14.503 8.52324 14.2494 8.4182 13.985 8.4182C13.7206 8.4182 13.467 8.52324 13.28 8.71022L8.68998 13.3002C8.59727 13.3927 8.52373 13.5026 8.47355 13.6236C8.42336 13.7446 8.39753 13.8743 8.39753 14.0052C8.39753 14.1362 8.42336 14.2659 8.47355 14.3868C8.52373 14.5078 8.59727 14.6177 8.68998 14.7102L13.28 19.3002C13.66 19.6802 14.3 19.6802 14.69 19.2902Z" fill="#666666"/>
</svg>
