<svg width="20" height="20" viewBox="0 0 20 20" fill="none" xmlns="http://www.w3.org/2000/svg">
<path d="M17.0308 16.6141C17.2608 16.6141 17.4475 16.8008 17.4475 17.0308C17.4475 17.2608 17.2608 17.4475 17.0308 17.4475L2.96916 17.4491C2.73916 17.4491 2.55249 17.2625 2.55249 17.0325C2.55249 16.8025 2.73916 16.6158 2.96916 16.6158L17.0308 16.6141Z" fill="#333333"/>
<path d="M17.0309 9.58325C17.2609 9.58325 17.4475 9.76992 17.4475 9.99992C17.4475 10.2299 17.2609 10.4166 17.0309 10.4166L8.69755 10.4174C8.46755 10.4174 8.28088 10.2308 8.28088 10.0008C8.28088 9.77075 8.46755 9.58409 8.69755 9.58409L17.0309 9.58325Z" fill="#333333"/>
<path d="M17.0308 2.55164C17.2608 2.55164 17.4475 2.7383 17.4475 2.9683C17.4475 3.1983 17.2608 3.38497 17.0308 3.38497L2.96916 3.3858C2.73916 3.3858 2.55249 3.19914 2.55249 2.96914C2.55249 2.73914 2.73916 2.55247 2.96916 2.55247L17.0308 2.55164Z" fill="#333333"/>
</svg>
