<svg width="46" height="46" viewBox="0 0 46 46" fill="none" xmlns="http://www.w3.org/2000/svg">
<path d="M29.0492 24.4985C26.4422 24.534 23.9264 23.5398 22.0481 21.7317C20.1698 19.9236 19.0807 17.4476 19.0172 14.8414C19.0177 13.5626 19.2772 12.2971 19.7801 11.1213C20.283 9.94551 21.0188 8.88373 21.9432 8C19.2028 8.27055 16.6584 9.54229 14.7972 11.5717C12.9361 13.6011 11.8889 16.2457 11.8562 18.999C11.9226 21.9757 13.1662 24.8047 15.3146 26.8663C17.463 28.9279 20.341 30.054 23.3182 29.998C25.5352 30.0174 27.7104 29.394 29.5806 28.2033C31.4508 27.0126 32.9358 25.3055 33.8562 23.2886C32.3773 24.0799 30.7265 24.4953 29.0492 24.4985Z" stroke="#333333" stroke-width="2" stroke-linecap="round" stroke-linejoin="round"/>
</svg>
